<?xml version="1.0" encoding="utf-8"?>
<!-- Svg Vector Icons : http://www.onlinewebfonts.com/icon -->
<!DOCTYPE svg PUBLIC "-//W3C//DTD SVG 1.1//EN" "http://www.w3.org/Graphics/SVG/1.1/DTD/svg11.dtd">
<svg version="1.1" xmlns="http://www.w3.org/2000/svg" xmlns:xlink="http://www.w3.org/1999/xlink" x="0px" y="0px" viewBox="0 0 1000 1000" enable-background="new 0 0 1000 1000" xml:space="preserve">
<metadata> Svg Vector Icons : http://www.onlinewebfonts.com/icon </metadata>
<g><path d="M920,202.5v560c0,38.6-31.4,70-70,70H115c0,38.6,31.4,70,70,70h735c38.6,0,70-31.4,70-70v-560C990,233.9,958.6,202.5,920,202.5L920,202.5z M885,727.5v-560c0-38.6-31.4-70-70-70H80c-38.6,0-70,31.4-70,70v560c0,38.6,31.4,70,70,70h735C853.6,797.5,885,766.1,885,727.5L885,727.5z M80,167.5h735v560H80V167.5L80,167.5z M487,528.4L382.4,417L277.8,595.7l-78.5-82l-85,179.5h666.9L630.8,299.6L487,528.4L487,528.4z M220,412.5c38.6,0,70-31.4,70-70c0-38.6-31.4-70-70-70c-38.6,0-70,31.4-70,70C150,381.1,181.4,412.5,220,412.5z"/></g>
</svg>