<?xml version="1.0" encoding="utf-8"?>
<!-- Svg Vector Icons : http://www.onlinewebfonts.com/icon -->
<!DOCTYPE svg PUBLIC "-//W3C//DTD SVG 1.1//EN" "http://www.w3.org/Graphics/SVG/1.1/DTD/svg11.dtd">
<svg version="1.1" xmlns="http://www.w3.org/2000/svg" xmlns:xlink="http://www.w3.org/1999/xlink" x="0px" y="0px" viewBox="0 0 1000 1000" enable-background="new 0 0 1000 1000" xml:space="preserve">
<metadata> Svg Vector Icons : http://www.onlinewebfonts.com/icon </metadata>
<g><path d="M670.3,334.2c-53.6,0-97,43.3-97,96.7c0,53.4,43.4,96.7,97,96.7c53.6,0,97-43.3,97-96.7C767.3,377.4,723.8,334.2,670.3,334.2z M670.1,493c-34.5,0-62.4-27.8-62.4-62.2c0-34.3,27.9-62.2,62.4-62.2s62.4,27.8,62.4,62.2C732.5,465.2,704.5,493,670.1,493z M922.3,189.4H77.7C40.3,189.4,10,219.7,10,257v660.4c0,37.4,30.3,67.7,67.7,67.7h844.7c37.4,0,67.7-30.3,67.7-67.7V257C990,219.7,959.7,189.4,922.3,189.4z M81.1,948.9c-18.7,0-33.8-15.1-33.8-33.8V763.9l318.4-234.2c1.9,2.4,4,4.8,6.3,7.3l425.7,411.9H81.1z M954.6,915c0,18.7-15.1,33.8-33.8,33.8h-70.4l-187.3-184c1.2-1.3,2.4-2.7,3.8-4l140.7-130.8l123.6,108.6c9.9,10.5,15.1,25.1,23.3,25V915z M954.6,704.2l-118.1-110c-7.3-7.7-17.5-11.2-27.3-10.3c-9.1-0.8-18.6,2.2-25.7,9l-144.8,137c-2,1.9-3.6,3.9-5,6L392.4,499c-8.1-8.5-11.4-11.9-16.2-9.9c-11.7-5.8-26-1.6-36.8,8.6L47.3,712.9V262.1c0-18.7,15.1-33.8,33.8-33.8h839.6c18.7,0,33.8,15.1,33.8,33.8V704.2z"/><path d="M102.8,148.7c6.1-8.5,15.9-14,27.1-14h739.7c11.2,0,21.1,5.5,27.1,14H948c-7.3-28.9-33.5-50.3-64.7-50.3H116.7c-31.2,0-57.3,21.4-64.7,50.3H102.8z"/><path d="M140.8,60.6c5.5-6.1,13.5-9.9,22.4-9.9h673.1c8.9,0,16.9,3.8,22.4,9.9h48.9c-6.7-26.3-30.5-45.7-58.8-45.7H151.2c-28.4,0-52.2,19.4-58.8,45.7H140.8z"/></g>
</svg>