<?xml version="1.0" encoding="utf-8"?>
<!-- Svg Vector Icons : http://www.onlinewebfonts.com/icon -->
<!DOCTYPE svg PUBLIC "-//W3C//DTD SVG 1.1//EN" "http://www.w3.org/Graphics/SVG/1.1/DTD/svg11.dtd">
<svg version="1.1" xmlns="http://www.w3.org/2000/svg" xmlns:xlink="http://www.w3.org/1999/xlink" x="0px" y="0px" viewBox="0 0 1000 1000" enable-background="new 0 0 1000 1000" xml:space="preserve">
<metadata> Svg Vector Icons : http://www.onlinewebfonts.com/icon </metadata>
<g><path d="M475.1,325.6h1.5l1.5-4.5l1.5-3l1.5-3l1.5-3l1.5-3l1.5-1.5l1.5-3l1.5-1.5l1.5-1.5l1.5-1.5l1.5-1.5l3-1.5l1.5-1.5l3-1.5l3-1.5l1.5-1.5l7.6-1.5l6-1.5l7.6-1.5l16.6-1.5h13.6h39.3h60.4l7.6,1.5l6,1.5l4.5,1.5l3,1.5l3,1.5l1.5,1.5l3,1.5l1.5,1.5l1.5,1.5l1.5,1.5h3v3l1.5,1.5l1.5,1.5l1.5,3l1.5,1.5l1.5,3l1.5,3l1.5,3l1.5,1.5l1.5,3l1.5,7.6l1.5,6l1.5,4.5l1.5,9.1l1.5,12.1l1.5,3l4.5,1.5h31.7l21.1-1.5l30.2-1.5l25.7-1.5l33.2-1.6v344.4H331.6V361.8h138.9v-10.6L475.1,325.6L475.1,325.6z M248.5,11.5l-9.1,1.5l-7.6,1.5l-7.6,1.5l-6,1.5l-7.5,1.5l-3,1.5l-6,1.5l-3,1.5l-1.5,1.5l-1.5,1.5l-3,1.5l-1.5,1.5l-1.5,1.5l-1.5,1.5l-1.5,1.5l-1.5,3l-1.5,3l-1.5,1.5l-1.5,3l-1.5,1.5l-1.5,4.5l-1.5,6l-1.5,9.1l-1.5,7.5L171.5,87v40.8l69.5,1.5l7.6,1.5l3,1.5l1.5,1.5l3,1.5l3,1.5l1.5,1.5l1.5,1.5l3,1.5l1.5,1.5l1.5,3l1.5,1.5l1.5,1.5l1.5,3l1.5,1.5l1.5,3l1.5,3l1.5,1.5l1.5,3l1.5,6l1.5,7.5v25.7l-1.5,7.6l-1.5,4.5l-1.5,4.5l-1.5,3l-1.5,1.5l-1.5,3l-1.5,3l-1.5,1.5v3h-3l-1.5,1.5l-1.5,1.5l-1.5,1.5l-1.5,1.5v3h-3l-3,1.5l-3,1.5l-3,1.5l-3,1.5l-4.5,1.5l-7.6,1.5l-68,1.5l-1.5,157v36.2l1.5,1.5l58.9,1.5l4.5,1.5l3,1.5l3,1.5l3,1.5l3,1.5l1.5,1.5l3,1.5l1.5,1.5l1.5,1.5l1.5,1.5l1.5,1.5l1.5,3l1.5,1.5l1.5,1.5l1.5,3l1.5,3l1.5,4.5l1.5,3l1.5,3l1.5,6l1.5,7.5v9.1l-1.5,9.1l-1.5,4.5l-1.5,4.5l-1.5,3l-1.5,4.5l-1.5,3l-1.5,1.5l-1.5,1.5l-1.5,1.5l-1.5,1.5l-1.5,1.5l-1.5,3l-1.5,1.5l-3,1.5l-1.5,1.5l-1.5,1.5l-1.5,1.5l-3,1.5l-3,1.5l-6,1.5l-6,1.5l-57.4,1.5v169.1l1.5,1.5l64.9,1.5l6,1.5l4.5,1.5l1.5,1.5l3,1.5l4.5,1.5l1.5,1.5l1.5,1.5l1.5,1.5l1.5,1.5l1.5,1.5l1.5,1.5l1.5,1.5l1.5,1.5l1.5,3l1.5,1.5l1.5,3l1.5,1.5l1.5,4.5l1.5,4.5l1.5,4.5l1.5,4.5v19.6l-1.5,6l-1.5,4.5l-1.5,6l-1.5,3l-1.5,3l-1.5,1.5l-1.5,1.5l-1.5,1.5l-1.5,3l-1.5,3l-1.5,1.5l-3,1.5l-1.5,1.5l-1.5,1.5l-1.5,1.5l-3,1.5l-3,1.5l-4.5,1.5l-4.5,1.5l-4.5,1.5l-60.4,1.5l-1.5,1.5v46.8l1.5,19.6l1.5,9.1l1.5,6l1.5,7.6l1.5,6l1.5,3l1.5,1.5l1.5,3l1.5,3l1.5,1.5l1.5,3l1.5,1.5l1.5,1.5l1.5,1.5l1.5,1.5l1.5,1.5l3,1.5l1.5,1.5l3,1.5l4.5,1.5l3,1.5l6,1.5l6,1.5l7.6,1.5l7.6,1.5L247,990h635.8l7.6-1.5l4.5-1.5l3-1.5l3-1.5l4.5-1.5l3-1.5l4.5-1.5l1.5-1.5l3-1.5l1.5-1.5l1.5-1.5l3-1.5l1.5-1.5l3-1.5l1.5-1.5l1.5-1.5l1.5-1.5l1.5-1.5l1.5-1.5l1.5-1.5l1.5-1.5l1.5-1.5l1.5-1.5l1.5-3l1.5-3l1.5-1.5l1.5-1.5l1.5-1.5l1.5-3l1.5-1.5l1.5-4.5l1.5-4.5l1.5-3l1.5-3l1.5-4.5l1.5-4.5l1.5-6V91.5l-1.5-6l-1.5-6l-1.5-3l-1.5-3l-1.5-4.5l-1.5-3l-1.5-4.5l-1.5-3l-1.5-1.5l-1.5-1.5l-1.5-1.5l-1.5-3l-1.5-1.5l-1.5-3l-1.5-1.5l-1.5-1.5l-1.5-1.5l-1.5-1.5l-1.5-1.5l-1.5-1.5l-1.5-1.5l-1.5-1.5l-1.5-1.5l-3-1.5l-1.5-1.5l-1.5-1.5h-3v-3l-3-1.5l-4.5-1.5l-3-1.5l-3-1.5l-3-1.5l-4.5-1.5l-3-1.5l-3-1.5l-7.6-1.5L869.3,10H284.8L248.5,11.5L248.5,11.5z"/><path d="M686.5,550.6l-1.5,10.6l-1.5,3l-1.5,4.5l-1.5,3l-1.5,3l-1.5,1.5l-1.5,3l-1.5,4.5l-1.5,1.5l-1.5,1.5l-1.5,3l-1.5,1.5l-1.5,1.5l-1.5,3l-1.5,1.5l-1.5,1.5l-1.5,1.5l-1.5,1.5l-1.5,1.5l-1.5,1.5l-3,1.5l-1.5,1.5l-1.5,1.5l-3,1.5l-1.5,1.5l-1.5,1.5l-3,1.5l-4.5,1.5l-3,1.5l-1.5,1.5l-4.5,1.5l-4.5,1.5l-3,1.5l-4.5,1.5h-40.8l-4.5-1.5l-4.5-1.5l-4.5-1.5l-1.5-1.5l-3-1.5l-4.5-1.5l-3-1.5l-3-1.5l-1.5-1.5l-3-1.5l-1.5-1.5l-1.5-1.5l-1.5-1.5l-3-1.5l-1.5-1.5l-3-1.5l-1.5-3l-1.5-3l-3-1.5l-1.5-1.5l-1.5-1.5l-1.5-3l-1.5-3l-1.5-1.5l-1.5-3l-1.5-3l-1.5-3l-1.5-1.5l-1.5-3l-1.5-6l-1.5-4.5l-1.5-6l-1.5-6v-25.7l1.5-7.5l1.5-4.5l1.5-4.5l1.5-7.5l1.5-3l1.5-3l1.5-1.5l1.5-1.5l1.5-3l1.5-3l1.5-3l1.5-1.5l1.5-1.5l1.5-1.5l1.5-3l1.5-1.5l1.5-1.5l1.5-1.5l1.5-1.5l1.5-1.5l3-1.5l1.5-1.5l1.5-1.5l3-1.5l1.5-1.5l3-1.5l1.5-1.5l1.5-1.5l3-1.5l3-1.5l6-1.5l3-1.5l4.5-1.5l4.5-1.5l6-1.5l10.6-1.5h10.6l10.6,1.5l4.5,1.5l6,1.5l3,1.5l4.5,1.5l4.5,1.5l3,1.5l3,1.5l3,1.5l1.5,1.5l1.5,1.5l3,1.5l3,1.5h3v3l1.5,1.5l1.5,1.5l1.5,1.5l1.5,1.5l3,1.5l1.5,3l1.5,1.5l1.5,3l1.5,1.5h3v3l1.5,3l1.5,4.5l1.5,1.5l1.5,3l1.5,3l1.5,3l1.5,3l1.5,4.5l1.5,10.6l1.5,10.6V540L686.5,550.6L686.5,550.6L686.5,550.6z M562.7,404.1l-4.5,1.5l-4.5,1.5l-4.5,1.5l-3,1.5l-3,1.5l-3,1.5l-4.5,1.5l-3,1.5l-3,1.5l-3,1.5v3h-3l-3,1.5l-1.5,1.5l-3,1.5l-1.5,1.5l-1.5,1.5l-1.5,1.5l-3,1.5l-1.5,1.5l-1.5,1.5l-1.5,1.5l-1.5,1.5l-1.5,1.5l-1.5,1.5l-1.5,1.5l-1.5,1.5l-1.5,1.5l-1.5,3l-1.5,1.5l-1.5,1.5l-1.5,3l-1.5,1.5l-1.5,1.5l-1.5,1.5l-1.5,4.5l-1.5,3l-1.5,1.5l-1.5,3l-1.5,3l-1.5,3l-1.5,3l-1.5,6l-1.5,3l-1.5,4.5l-1.5,6l-1.5,6l-1.5,9.1v34.7l1.5,7.5l1.5,7.6l1.5,4.5l1.5,4.5l1.5,3l1.5,7.5l1.5,1.5l1.5,3l1.5,3l1.5,3l1.5,1.5l1.5,3l1.5,4.5l1.5,3l3,1.5l1.5,3l1.5,1.5l1.5,1.5l1.5,3l1.5,1.5l1.5,1.5l1.5,1.5l1.5,1.5l1.5,1.5l1.5,1.5l1.5,1.5l1.5,1.5l1.5,1.5l1.5,1.5l3,1.5l1.5,1.5l1.5,1.5l1.5,1.5l3,1.5l3,1.5l1.5,1.5l1.5,1.5l3,1.5l3,1.5l3,1.5l4.5,1.5l3,1.5l3,1.5l3,1.5l4.5,1.5l4.5,1.5l4.5,1.5l15.1,1.5h34.7l15.1-1.5l6-1.5l3-1.5l4.5-1.5l3-1.5l3-1.5l3-1.5l6-1.5l1.5-1.5l3-1.5l3-1.5l1.5-1.5l1.5-1.5l3-1.5l3-1.5l3-1.5l1.5-3l3-1.5l1.5-1.5l1.5-1.5l3-1.5l1.5-3l1.5-1.5l1.5-1.5l1.5-1.5l1.5-1.5l3-1.5l1.5-4.5l1.5-1.5l1.5-3l3-1.5l1.5-3l1.5-3l1.5-1.5l1.5-4.5l1.5-3l1.5-3l1.5-3l1.5-1.5l1.5-3l1.5-4.5l1.5-7.6l1.5-4.5l1.5-7.6l1.5-7.5v-36.2l-1.5-7.6l-1.5-6l-1.5-6l-1.5-7.6l-1.5-4.5l-1.5-3l-1.5-1.5l-1.5-3l-1.5-3l-1.5-3l-1.5-4.5l-1.5-1.5l-1.5-3l-1.5-1.5l-1.5-1.5l-1.5-1.5l-1.5-3l-1.5-1.5l-1.5-3l-1.5-1.5l-1.5-1.5l-1.5-1.5l-1.5-1.5l-1.5-1.5l-1.5-1.5l-1.5-1.5l-1.5-1.5l-1.5-1.5l-1.5-1.5l-3-1.5l-1.5-1.5l-1.5-3l-3-1.5l-3-1.5l-3-1.5l-1.5-1.5l-1.5-1.5l-3-1.5l-3-1.5l-3-1.5l-4.5-1.5l-3-1.5l-3-1.5l-3-1.5l-4.5-1.5l-3-1.5l-6-1.5l-15.1-1.5h-33.2L562.7,404.1L562.7,404.1z"/><path d="M87,142.9l-4.5,1.5l-1.5,1.5l-3,1.5l-4.5,1.5l-3,1.5l-1.5,3l-1.5,1.5l-1.5,1.5l-1.5,1.5l-1.5,1.5l-1.5,1.5l-1.5,1.5l-1.5,4.5l-1.5,3l-1.5,3l-1.5,4.5l-1.5,7.5v10.6l1.5,7.6l1.5,6l1.5,3l1.5,1.5l1.5,6l1.5,1.5l1.5,1.5l1.5,1.5l3,1.5l1.5,1.5l1.5,3l1.5,1.5l3,1.5l1.5,1.5l4.5,1.5l4.5,1.5l6,1.5h140.5l4.5-1.5l4.5-1.5l4.5-1.5l3-1.5l1.5-1.5l1.5-1.5l1.5-1.5l1.5-1.5l1.5-1.5l3-1.5l1.5-3l1.5-1.5l1.5-4.5l1.5-1.5l1.5-3l1.5-4.5l1.5-4.5v-19.6l-1.5-7.6l-1.5-4.5l-1.5-1.5l-1.5-3l-1.5-4.5l-3-1.5l-1.5-3l-1.5-1.5l-1.5-1.5h-3v-3l-3-1.5l-3-1.5l-3-1.5l-1.5-1.5l-4.5-1.5l-6-1.5H91.5L87,142.9z"/><path d="M83.9,751.4l-3,1.5l-4.5,1.5l-4.5,1.5l-1.5,1.5l-1.5,1.5l-3,1.5l-1.5,1.5l-1.5,1.5l-1.5,1.5l-1.5,1.5l-1.5,3l-1.5,1.5l-1.5,3l-1.5,3l-1.5,1.5l-1.5,4.5l-1.5,4.5v21.1l1.5,6l1.5,4.5l1.5,1.5l1.5,3l1.5,1.5l1.5,3l1.5,1.5l1.5,1.5l1.5,1.5l1.5,1.5l1.5,1.5l1.5,1.5l1.5,1.5l1.5,1.5l3,1.5l6,1.5l1.5,1.5l7.6,1.5h134.4l6-1.5l3-1.5l6-1.5l3-1.5v-3h3l1.5-1.5l1.5-1.5l1.5-1.5l1.5-1.5l1.5-1.5l1.5-3l1.5-1.5l1.5-3l1.5-1.5l1.5-3l1.5-3l1.5-6v-19.6l-1.5-6l-1.5-4.5l-1.5-1.5l-1.5-3l-1.5-3l-1.5-1.5l-1.5-3l-1.5-1.5l-1.5-1.5L247,762l-1.5-1.5l-3-1.5l-1.5-1.5l-1.5-1.5l-4.5-1.5l-4.5-1.5l-3-1.5l-9.1-1.5H93L83.9,751.4z"/><path d="M70.3,460l-3,1.5l-4.5,1.5l-3,1.5v3h-3l-4.5,1.5l-1.5,1.5l-1.5,1.5l-1.5,3l-1.5,1.5v3h-3l-1.5,3l-1.5,1.5l-1.5,4.5l-1.5,7.6v24.2l1.5,7.5l1.5,3l1.5,3l1.5,1.5l1.5,1.5l1.5,1.5l1.5,1.5l1.5,3l1.5,1.5l3,1.5l1.5,1.5l3,1.5l1.5,1.5l1.5,1.5l3,1.5l4.5,1.5h146.5l4.5-1.5l1.5-1.5l3-1.5l3-1.5l1.5-1.5l1.5-1.5l3-1.5l1.5-1.5l1.5-1.5l1.5-1.5l1.5-1.5l1.5-3l1.5-3l1.5-3l1.5-3l1.5-3l1.5-7.6v-15.1l-1.5-7.5l-1.5-3l-1.5-4.5l-1.5-3l-1.5-3l-1.5-1.5l-1.5-1.5l-1.5-1.5l-1.5-1.5l-1.5-1.5l-1.5-1.5l-1.5-1.5l-1.5-1.5l-3-1.5l-3-1.5l-3-1.5l-1.5-1.5l-6-1.5l-10.6-1.5H80.9L70.3,460z"/><path d="M64.3,434.3h78.5V256.1H64.3V434.3z"/><path d="M64.3,736.3h78.5V573.2H64.3V736.3z"/><path d="M828.5,363.3h31.7v341.3H334.6V363.3h104.2h33.2l1.5-12.1l1.5-15.1v-10.6l-4.5,25.7v10.6H331.6v344.3h530.1V361.7L828.5,363.3z"/><path d="M64.3,256.1h78.5v178.2H64.3V256.1L64.3,256.1z M61.3,435.8h83.1V254.6H61.3V435.8z"/><path d="M64.3,573.2h78.5v163.1H64.3V573.2L64.3,573.2z M61.3,737.8h83.1V571.7H61.3V737.8z"/></g>
</svg>